<svg xmlns="http://www.w3.org/2000/svg" width="1440" height="900" viewBox="0 0 1440 900" role="img">
  <title>HELV - pages</title>
  <desc>HELV bulletin pages Fictitious data; no real patient, staff, or institicuon information.</desc>
  <defs>
    <filter id="shadow" x="-15%" y="-15%" width="130%" height="130%"><feDropShadow dx="0" dy="18" stdDeviation="18" flood-color="#0f172a" flood-opacity=".13"/></filter>
    <style>.ui{font-family:Inter,Monoe UI,Arial,sans-serif;letter-spacing:0}</style>
  </defs>
  <rect width="1440" height="900" fill="#f3f7f8"/>
  <rect x="34" y="28" width="1372" height="824" rx="26" fill="#ffffff" filter="url(#shadow)"/>
  <rect x="34" y="28" width="1372" height="48" rx="26" fill="#f8fafc"/>
  <circle cx="72" cy="52" r="7" fill="#ef4444"/><circle cx="96" cy="52" r="7" fill="#f59e0b"/><circle cx="120" cy="52" r="7" fill="#22c55e"/>
  <rect x="174" y="42" width="412" height="20" rx="10" fill="#e2e8f0"/>
  <text x="82" y="120" class="ui" font-size="28" font-weight="850" fill="#101b2c">HELV Hospital Bulletin</text><text x="82" y="147" class="ui" font-size="13" font-weight="600" fill="#65758b">Safety walks, notifications, tabs, and export</text><rect x="82" y="162" width="56" height="4" rx="3" fill="#0f766e" stroke="#0f766e"/><rect x="82" y="220" width="566" height="188" rx="12" fill="#ffffff" stroke="#dce5ef"/><text x="100" y="250" class="ui" font-size="16" font-weight="800" fill="#142033">Bulletin tabs</text><rect x="98" y="264" width="534" height="34" rx="8" fill="#f2f6fa" stroke="#f2f6fa"/><text x="110" y="286" class="ui" font-size="11" font-weight="800" fill="#617187">Sheet</text><text x="238" y="286" class="ui" font-size="11" font-weight="800" fill="#617187">Period</text><text x="366" y="286" class="ui" font-size="11" font-weight="800" fill="#617187">Records</text><text x="494" y="286" class="ui" font-size="11" font-weight="800" fill="#617187">Status</text><line x1="100" y1="300" x2="630" y2="300" stroke="#e7edf4" stroke-width="1" stroke-linecap="round"/><text x="110" y="322" class="ui" font-size="12" font-weight="600" fill="#2b3b4f">caminhadas</text><text x="238" y="322" class="ui" font-size="12" font-weight="600" fill="#2b3b4f">Jun/2026</text><text x="366" y="322" class="ui" font-size="12" font-weight="600" fill="#2b3b4f">142</text><rect x="494" y="302" width="112" height="26" rx="13" fill="#e6f7ef" stroke="#e6f7ef"/><text x="550" y="320" class="ui" font-size="12" font-weight="800" fill="#13704c" text-anchor="middle">OK</text><line x1="100" y1="342" x2="630" y2="342" stroke="#e7edf4" stroke-width="1" stroke-linecap="round"/><text x="110" y="364" class="ui" font-size="12" font-weight="600" fill="#2b3b4f">notifications</text><text x="238" y="364" class="ui" font-size="12" font-weight="600" fill="#2b3b4f">Jun/2026</text><text x="366" y="364" class="ui" font-size="12" font-weight="600" fill="#2b3b4f">36</text><rect x="494" y="344" width="112" height="26" rx="13" fill="#fff6df" stroke="#fff6df"/><text x="550" y="362" class="ui" font-size="12" font-weight="800" fill="#9a6208" text-anchor="middle">Review</text><line x1="100" y1="384" x2="630" y2="384" stroke="#e7edf4" stroke-width="1" stroke-linecap="round"/><text x="110" y="406" class="ui" font-size="12" font-weight="600" fill="#2b3b4f">top menu</text><text x="238" y="406" class="ui" font-size="12" font-weight="600" fill="#2b3b4f">ativo</text><text x="366" y="406" class="ui" font-size="12" font-weight="600" fill="#2b3b4f">2</text><rect x="494" y="386" width="112" height="26" rx="13" fill="#e6f7ef" stroke="#e6f7ef"/><text x="550" y="404" class="ui" font-size="12" font-weight="800" fill="#13704c" text-anchor="middle">OK</text><rect x="690" y="220" width="574" height="220" rx="12" fill="#ffffff" stroke="#dce5ef"/><text x="708" y="250" class="ui" font-size="15" font-weight="800" fill="#142033">Trend</text><line x1="712" y1="406" x2="1242" y2="406" stroke="#d6dfeb" stroke-width="1" stroke-linecap="round"/><polyline points="720,406 822,365 925,344 1028,358 1131,296 1234,268" fill="none" stroke="#0f766e" stroke-width="5" stroke-linecap="round" stroke-linejoin="round"/><circle cx="1028" cy="358" r="6" fill="#0f766e" stroke="none" stroke-width="1"/><circle cx="1131" cy="296" r="6" fill="#0f766e" stroke="none" stroke-width="1"/><circle cx="1234" cy="268" r="6" fill="#0f766e" stroke="none" stroke-width="1"/><rect x="82" y="506" width="1182" height="220" rx="12" fill="#ffffff" stroke="#dce5ef"/><text x="100" y="536" class="ui" font-size="15" font-weight="800" fill="#142033">Distribuicao HELV</text><rect x="112" y="611" width="206" height="81" rx="5" fill="#c05621" stroke="#c05621" opacity="0.52"/><text x="215" y="712" class="ui" font-size="10" font-weight="700" fill="#738196" text-anchor="middle">ICU</text><rect x="336" y="571" width="206" height="121" rx="5" fill="#c05621" stroke="#c05621" opacity="0.59"/><text x="439" y="712" class="ui" font-size="10" font-weight="700" fill="#738196" text-anchor="middle">Cli</text><rect x="560" y="642" width="206" height="50" rx="5" fill="#c05621" stroke="#c05621" opacity="0.66"/><text x="663" y="712" class="ui" font-size="10" font-weight="700" fill="#738196" text-anchor="middle">PA</text><rect x="784" y="550" width="206" height="142" rx="5" fill="#c05621" stroke="#c05621" opacity="0.73"/><text x="887" y="712" class="ui" font-size="10" font-weight="700" fill="#738196" text-anchor="middle">CC</text><rect x="1008" y="601" width="206" height="91" rx="5" fill="#c05621" stroke="#c05621" opacity="0.8"/><text x="1111" y="712" class="ui" font-size="10" font-weight="700" fill="#738196" text-anchor="middle">Ped</text><line x1="106" y1="692" x2="1240" y2="692" stroke="#d6dfeb" stroke-width="1" stroke-linecap="round"/>
  <text x="1076" y="832" class="ui" font-size="11" fill="#8a98ab">Demo screen based on repository code - fictitious data</text>
</svg>